<svg version="1.1" xmlns="http://www.w3.org/2000/svg" xmlns:xlink="http://www.w3.org/1999/xlink" width="24" height="24" viewBox="0,0,256,256"><g fill="#ffffff" fill-rule="nonzero" stroke="none" stroke-width="1" stroke-linecap="butt" stroke-linejoin="miter" stroke-miterlimit="10" stroke-dasharray="" stroke-dashoffset="0" font-family="none" font-weight="none" font-size="none" text-anchor="none" style="mix-blend-mode: normal"><g transform="scale(10.66667,10.66667)"><g id="brandico:facebook-rect"><path d="M6.28669,3c-1.82068,0 -3.28669,1.46601 -3.28669,3.28669v11.42661c0,1.8207 1.46601,3.2867 3.28669,3.2867h6.19311v-7.0369h-1.8607v-2.5335h1.8607v-2.16448c0,-1.70055 1.0994,-3.26193 3.6321,-3.26193c1.0254,0 1.7837,0.09844 1.7837,0.09844l-0.0597,2.36588c0,0 -0.7733,-0.00731 -1.6172,-0.00731c-0.9133,0 -1.0597,0.4208 -1.0597,1.11938v1.85002h2.7495l-0.1198,2.5335h-2.6297v7.0369h2.5543c1.8207,0 3.2867,-1.466 3.2867,-3.2867v-11.4266c0,-1.82068 -1.466,-3.28668 -3.2867,-3.28668h-11.42663z" id="Vector"></path></g></g></g></svg>