<svg version="1.1" xmlns="http://www.w3.org/2000/svg" xmlns:xlink="http://www.w3.org/1999/xlink" width="24" height="24" viewBox="0,0,256,256"><g fill="#ffffff" fill-rule="nonzero" stroke="none" stroke-width="1" stroke-linecap="butt" stroke-linejoin="miter" stroke-miterlimit="10" stroke-dasharray="" stroke-dashoffset="0" font-family="none" font-weight="none" font-size="none" text-anchor="none" style="mix-blend-mode: normal"><g transform="translate(-0.00101,0.00005) scale(10.66667,10.66667)"><g id="bx:bxl-instagram-alt"><path d="M20.9461,8.30499c-0.0101,-0.75738 -0.1519,-1.50723 -0.419,-2.216c-0.2317,-0.59785 -0.5855,-1.1408 -1.0388,-1.59417c-0.4534,-0.45337 -0.9964,-0.80718 -1.5942,-1.03883c-0.6997,-0.26265 -1.4388,-0.40466 -2.186,-0.42c-0.962,-0.043 -1.267,-0.055 -3.709,-0.055c-2.44201,0 -2.75501,0 -3.71001,0.055c-0.74684,0.01545 -1.48565,0.15747 -2.185,0.42c-0.59794,0.23149 -1.14098,0.58524 -1.59436,1.03863c-0.45339,0.45339 -0.80715,0.99643 -1.03864,1.59437c-0.26317,0.69913 -0.40487,1.43811 -0.419,2.185c-0.043,0.963 -0.056,1.268 -0.056,3.71001c0,2.442 0,2.754 0.056,3.71c0.015,0.748 0.156,1.486 0.419,2.187c0.23188,0.5977 0.5859,1.1406 1.03944,1.5938c0.45354,0.4532 0.99663,0.8068 1.59456,1.0382c0.69744,0.2732 1.43638,0.4254 2.185,0.45c0.963,0.043 1.268,0.056 3.71001,0.056c2.442,0 2.755,0 3.71,-0.056c0.7471,-0.0147 1.4864,-0.1564 2.186,-0.419c0.5977,-0.2319 1.1405,-0.5858 1.5938,-1.0392c0.4534,-0.4533 0.8073,-0.9961 1.0392,-1.5938c0.263,-0.7 0.404,-1.438 0.419,-2.187c0.043,-0.962 0.056,-1.267 0.056,-3.71c-0.002,-2.44201 -0.002,-2.75201 -0.058,-3.70901zM11.9931,16.602c-2.55401,0 -4.62301,-2.069 -4.62301,-4.623c0,-2.55401 2.069,-4.62301 4.62301,-4.62301c1.2261,0 2.402,0.48706 3.2689,1.35404c0.867,0.86698 1.3541,2.04287 1.3541,3.26897c0,1.2261 -0.4871,2.402 -1.3541,3.2689c-0.8669,0.867 -2.0428,1.3541 -3.2689,1.3541zM16.8001,8.26299c-0.597,0 -1.078,-0.482 -1.078,-1.078c0,-0.1415 0.0279,-0.28162 0.082,-0.41234c0.0542,-0.13073 0.1335,-0.24951 0.2336,-0.34957c0.1,-0.10006 0.2188,-0.17942 0.3496,-0.23357c0.1307,-0.05415 0.2708,-0.08202 0.4123,-0.08202c0.1415,0 0.2816,0.02787 0.4123,0.08202c0.1308,0.05415 0.2495,0.13351 0.3496,0.23357c0.1001,0.10006 0.1794,0.21884 0.2336,0.34957c0.0541,0.13072 0.082,0.27084 0.082,0.41234c0,0.596 -0.482,1.078 -1.077,1.078z" id="Vector"></path><path d="M11.9932,14.982c1.6585,0 3.003,-1.3445 3.003,-3.003c0,-1.6585 -1.3445,-3.00299 -3.003,-3.00299c-1.6585,0 -3.00297,1.34449 -3.00297,3.00299c0,1.6585 1.34447,3.003 3.00297,3.003z" id="Vector_2"></path></g></g></g></svg>