<svg version="1.1" xmlns="http://www.w3.org/2000/svg" xmlns:xlink="http://www.w3.org/1999/xlink" width="24" height="24" viewBox="0,0,256,256"><g fill="#ffffff" fill-rule="nonzero" stroke="none" stroke-width="1" stroke-linecap="butt" stroke-linejoin="miter" stroke-miterlimit="10" stroke-dasharray="" stroke-dashoffset="0" font-family="none" font-weight="none" font-size="none" text-anchor="none" style="mix-blend-mode: normal"><g transform="translate(0.00827,-0.00005) scale(10.66667,10.66667)"><g id="ant-design:twitter-outlined"><path d="M21.7504,5.96015c-0.7172,0.30938 -1.4977,0.53203 -2.3016,0.61875c0.8347,-0.49585 1.4597,-1.27922 1.7578,-2.20312c-0.7832,0.46591 -1.6412,0.79261 -2.5359,0.96562c-0.374,-0.39978 -0.8262,-0.71827 -1.3287,-0.93561c-0.5024,-0.21734 -1.0442,-0.32888 -1.5916,-0.32767c-2.2149,0 -3.9961,1.79531 -3.9961,3.99844c0,0.30937 0.0375,0.61875 0.0984,0.9164c-3.31637,-0.17343 -6.27418,-1.75781 -8.24059,-4.18359c-0.3583,0.61199 -0.54606,1.30881 -0.54375,2.01797c0,1.3875 0.70547,2.61094 1.78125,3.33046c-0.63397,-0.025 -1.2531,-0.19922 -1.80703,-0.50859v0.04922c0,1.94297 1.37344,3.55317 3.2039,3.92347c-0.34369,0.0892 -0.69724,0.1349 -1.05234,0.1359c-0.26016,0 -0.50625,-0.0258 -0.75469,-0.0609c0.50625,1.5843 1.98047,2.7351 3.73594,2.7726c-1.37344,1.0758 -3.09375,1.7086 -4.96172,1.7086c-0.33515,0 -0.64453,-0.0117 -0.96562,-0.0492c1.77187,1.1367 3.87422,1.793 6.13828,1.793c7.34997,0 11.37187,-6.0891 11.37187,-11.37425c0,-0.17344 0,-0.34687 -0.0117,-0.52031c0.7781,-0.56953 1.4601,-1.275 2.0039,-2.06719z" id="Vector"></path></g></g></g></svg>