<svg version="1.1" xmlns="http://www.w3.org/2000/svg" xmlns:xlink="http://www.w3.org/1999/xlink" width="24" height="24" viewBox="0,0,256,256"><g fill="#ffffff" fill-rule="nonzero" stroke="none" stroke-width="1" stroke-linecap="butt" stroke-linejoin="miter" stroke-miterlimit="10" stroke-dasharray="" stroke-dashoffset="0" font-family="none" font-weight="none" font-size="none" text-anchor="none" style="mix-blend-mode: normal"><g transform="translate(-0.20503,-0.00005) scale(10.66667,10.66667)"><g id="bx:bxl-vk"><path d="M21.579,6.85501c0.14,-0.465 0,-0.806 -0.662,-0.806h-2.193c-0.558,0 -0.813,0.295 -0.953,0.619c0,0 -1.115,2.719 -2.695,4.48199c-0.51,0.513 -0.743,0.675 -1.021,0.675c-0.139,0 -0.341,-0.162 -0.341,-0.627v-4.34299c0,-0.558 -0.161,-0.806 -0.626,-0.806h-3.446c-0.348,0 -0.558,0.258 -0.558,0.504c0,0.528 0.79,0.65 0.871,2.138v3.22799c0,0.707 -0.127,0.836 -0.407,0.836c-0.743,0 -2.551,-2.729 -3.624,-5.85299c-0.209,-0.607 -0.42,-0.852 -0.98,-0.852h-2.192c-0.627,0 -0.752,0.295 -0.752,0.619c0,0.582 0.743,3.46199 3.461,7.27099c1.812,2.601 4.363,4.011 6.687,4.011c1.393,0 1.565,-0.313 1.565,-0.853v-1.966c0,-0.626 0.133,-0.752 0.574,-0.752c0.324,0 0.882,0.164 2.183,1.417c1.486,1.486 1.732,2.153 2.567,2.153h2.192c0.626,0 0.939,-0.313 0.759,-0.931c-0.197,-0.615 -0.907,-1.51 -1.849,-2.569c-0.512,-0.604 -1.277,-1.254 -1.51,-1.579c-0.325,-0.419 -0.231,-0.604 0,-0.976c0.001,0.001 2.672,-3.76099 2.95,-5.03999z" id="Vector"></path></g></g></g></svg>